<svg width="20" height="20" viewBox="0 0 20 20" fill="none" xmlns="http://www.w3.org/2000/svg">
<path d="M15.4167 17.5C17.0275 17.5 18.3333 16.1941 18.3333 14.5833C18.3333 12.9725 17.0275 11.6666 15.4167 11.6666C13.8058 11.6666 12.5 12.9725 12.5 14.5833C12.5 16.1941 13.8058 17.5 15.4167 17.5Z" stroke="#58595B" stroke-width="1.66667" stroke-linecap="round" stroke-linejoin="round"/>
<path d="M4.58335 17.5C6.19418 17.5 7.50002 16.1941 7.50002 14.5833C7.50002 12.9725 6.19418 11.6666 4.58335 11.6666C2.97252 11.6666 1.66669 12.9725 1.66669 14.5833C1.66669 16.1941 2.97252 17.5 4.58335 17.5Z" stroke="#58595B" stroke-width="1.66667" stroke-linecap="round" stroke-linejoin="round"/>
<path d="M12.5 5.00004C12.9603 5.00004 13.3334 4.62694 13.3334 4.16671C13.3334 3.70647 12.9603 3.33337 12.5 3.33337C12.0398 3.33337 11.6667 3.70647 11.6667 4.16671C11.6667 4.62694 12.0398 5.00004 12.5 5.00004Z" stroke="#58595B" stroke-width="1.66667" stroke-linecap="round" stroke-linejoin="round"/>
<path d="M10 14.5833V11.6666L7.5 9.16663L10.8333 6.66663L12.5 9.16663H14.1667" stroke="#58595B" stroke-width="1.66667" stroke-linecap="round" stroke-linejoin="round"/>
</svg>
