<svg width="20" height="20" viewBox="0 0 20 20" fill="none" xmlns="http://www.w3.org/2000/svg">
<path d="M8.33331 1.66663V8.33329L10.8333 5.83329L13.3333 8.33329V1.66663" stroke="#58595B" stroke-width="2" stroke-linecap="round" stroke-linejoin="round"/>
<path d="M3.33331 16.25V3.74996C3.33331 3.19742 3.55281 2.66752 3.94351 2.27682C4.33421 1.88612 4.86411 1.66663 5.41665 1.66663H15.8333C16.0543 1.66663 16.2663 1.75442 16.4226 1.9107C16.5788 2.06698 16.6666 2.27895 16.6666 2.49996V17.5C16.6666 17.721 16.5788 17.9329 16.4226 18.0892C16.2663 18.2455 16.0543 18.3333 15.8333 18.3333H5.41665C4.86411 18.3333 4.33421 18.1138 3.94351 17.7231C3.55281 17.3324 3.33331 16.8025 3.33331 16.25ZM3.33331 16.25C3.33331 15.6974 3.55281 15.1675 3.94351 14.7768C4.33421 14.3861 4.86411 14.1666 5.41665 14.1666H16.6666" stroke="#58595B" stroke-width="2" stroke-linecap="round" stroke-linejoin="round"/>
</svg>
