<svg width="20" height="20" viewBox="0 0 20 20" fill="none" xmlns="http://www.w3.org/2000/svg">
<path d="M10 4.16664C10.5583 4.16664 11.125 4.24164 11.6667 4.38331C13.15 2.71664 15.8583 2.01664 17.0167 2.49998C18.1833 2.98331 16.6667 8.33331 16.6667 8.33331C17.1417 9.22498 17.5 10.2 17.5 11.2C17.5 14.9166 14.1417 17.5 10 17.5C5.85834 17.5 2.5 15 2.5 11.2C2.5 10.1583 2.91667 9.19998 3.33334 8.33331C3.33334 8.33331 1.75834 2.98331 2.91667 2.49998C4.075 2.01664 6.85 2.69164 8.33334 4.35831C8.88002 4.23257 9.43905 4.16828 10 4.16664Z" stroke="#58595B" stroke-width="1.66667" stroke-linecap="round" stroke-linejoin="round"/>
<path d="M6.66669 11.6666V12.0833" stroke="#58595B" stroke-width="1.66667" stroke-linecap="round" stroke-linejoin="round"/>
<path d="M13.3333 11.6666V12.0833" stroke="#58595B" stroke-width="1.66667" stroke-linecap="round" stroke-linejoin="round"/>
<path d="M9.375 13.5416H10.625L10 14.1666L9.375 13.5416Z" stroke="#58595B" stroke-width="1.66667" stroke-linecap="round" stroke-linejoin="round"/>
</svg>
